<?xml version="1.0" standalone="no"?>
<!DOCTYPE svg PUBLIC "-//W3C//DTD SVG 20010904//EN" "http://www.w3.org/TR/2001/REC-SVG-20010904/DTD/svg10.dtd">
<svg version="1.0" xmlns="http://www.w3.org/2000/svg" width="2481.000000pt" height="2482.000000pt"
  viewBox="0 0 2481.000000 2482.000000" preserveAspectRatio="xMidYMid meet">
  <style>
    .cls {
      fill: #000;
    }

    @media (prefers-color-scheme: dark) {
      .cls {
        fill: #fff;
      }
    }
  </style>

  <g transform="translate(0.000000,2482.000000) scale(0.100000,-0.100000)" class="cls" stroke="none">
    <path d="M8555 17504 c-33 -2 -141 -8 -240 -14 -621 -38 -1368 -173 -1990
-360 -961 -289 -1753 -694 -2380 -1218 -311 -261 -762 -790 -753 -884 4 -39
46 -73 80 -65 13 4 80 52 149 108 1412 1159 3156 1702 5354 1666 1095 -18
2186 -150 3660 -443 741 -147 1451 -306 3300 -739 1208 -283 1944 -429 2670
-529 1259 -174 2156 -131 3011 145 84 27 162 57 175 68 30 24 30 74 0 104 -21
21 -30 22 -334 29 -967 20 -2024 159 -3342 439 -632 135 -1004 224 -2350 560
-1444 361 -1850 459 -2506 603 -1331 293 -2456 457 -3529 516 -194 11 -872 20
-975 14z" />
    <path d="M11802 15340 c-12 -5 -27 -21 -32 -35 -6 -16 -10 -172 -10 -381 l0
-354 -219 0 c-206 0 -220 -1 -245 -21 l-26 -20 0 -389 c0 -367 1 -389 19 -411
19 -24 21 -24 244 -27 l226 -3 4 -767 c4 -833 4 -826 63 -1022 120 -396 432
-655 884 -735 101 -18 420 -32 464 -21 15 4 35 15 46 26 19 19 20 35 20 415 0
472 12 436 -142 449 -68 5 -149 46 -184 91 -13 17 -34 53 -46 81 l-23 49 -3
717 -3 717 247 3 246 3 24 28 24 28 0 369 c0 249 -4 377 -11 393 -19 43 -46
47 -294 47 l-235 0 0 365 0 366 -25 24 -24 25 -483 -1 c-266 0 -493 -4 -506
-9z" />
    <path d="M5572 14594 c-7 -3 -19 -19 -27 -34 -12 -24 -15 -93 -15 -404 0 -220
4 -385 10 -400 12 -34 34 -42 150 -55 264 -30 420 -146 484 -360 9 -30 16 -67
16 -82 l0 -27 -467 -5 c-492 -5 -589 -12 -788 -59 -442 -102 -726 -346 -820
-704 -87 -330 -2 -694 219 -931 235 -253 583 -383 1021 -383 344 0 632 83 829
240 l76 60 0 -105 c0 -160 -52 -145 508 -145 464 0 469 0 488 21 18 20 19 52
19 1033 0 1066 -1 1102 -47 1301 -59 258 -165 459 -330 623 -217 218 -522 353
-908 402 -100 12 -399 23 -418 14z m628 -2173 c0 -135 -8 -162 -75 -257 -110
-154 -294 -236 -535 -237 -291 -2 -450 107 -450 308 0 135 69 221 211 265 102
32 171 37 522 39 l327 1 0 -119z" />
    <path d="M15220 14589 c-120 -14 -311 -57 -422 -95 -270 -93 -477 -222 -674
-418 -242 -242 -379 -496 -451 -835 -25 -117 -27 -143 -27 -366 0 -223 2 -249
27 -366 109 -514 412 -910 877 -1149 193 -99 412 -166 644 -196 168 -22 504
-15 666 14 387 70 714 236 970 493 132 132 222 258 304 424 121 244 165 423
173 712 6 204 -4 324 -38 473 -95 412 -328 756 -677 998 -103 72 -333 184
-464 226 -115 38 -270 70 -413 86 -106 12 -388 11 -495 -1z m444 -925 c162
-32 336 -156 430 -307 153 -247 166 -643 29 -917 -51 -102 -188 -241 -290
-293 -223 -116 -530 -109 -741 15 -31 18 -93 69 -137 113 -97 96 -154 198
-192 343 -22 83 -25 119 -26 247 0 279 61 451 218 610 178 180 424 246 709
189z" />
    <path d="M7566 14508 c-14 -20 -16 -128 -16 -959 0 -539 4 -991 10 -1065 32
-410 138 -671 364 -898 227 -227 551 -366 996 -427 122 -17 485 -17 615 0 431
55 790 205 1005 420 185 186 293 404 345 702 29 160 35 400 35 1294 0 706 -3
905 -13 925 l-13 25 -493 3 c-449 2 -496 1 -513 -14 -17 -16 -18 -55 -18 -878
0 -1009 -1 -1023 -94 -1211 -71 -144 -197 -252 -355 -307 -88 -31 -277 -33
-361 -4 -199 68 -339 203 -405 393 -54 154 -55 175 -55 1112 0 768 -2 869 -16
889 l-15 22 -494 0 -494 0 -15 -22z" />
    <path d="M19127 11472 c-15 -16 -17 -62 -19 -388 l-3 -369 -227 -3 -227 -2
-20 -27 c-20 -25 -21 -37 -21 -405 l0 -379 25 -24 24 -25 225 0 225 0 4 -777
c3 -765 4 -780 26 -878 90 -399 320 -662 693 -793 148 -53 280 -73 498 -79
189 -5 196 -5 223 17 l27 21 0 403 c0 470 10 431 -118 446 -98 11 -146 34
-201 96 -78 88 -75 62 -79 847 l-3 697 246 0 246 0 24 25 25 24 0 384 c0 315
-3 387 -14 403 -13 18 -32 19 -268 24 l-253 5 -3 369 c-2 326 -4 372 -19 388
-15 17 -46 18 -518 18 -472 0 -503 -1 -518 -18z" />
    <path d="M5545 10764 c-226 -17 -398 -49 -567 -104 -591 -194 -888 -633 -804
-1190 29 -192 102 -336 233 -461 145 -138 287 -216 503 -275 160 -44 416 -95
645 -129 220 -32 298 -48 396 -80 132 -44 173 -110 128 -202 -30 -60 -85 -95
-194 -123 -104 -27 -346 -37 -500 -21 -294 32 -633 139 -840 265 -67 40 -93
44 -123 19 -33 -28 -345 -711 -338 -739 10 -38 43 -61 191 -134 278 -138 630
-228 1014 -261 172 -14 509 -7 656 15 658 97 1070 407 1167 876 17 78 19 120
15 240 -6 171 -27 264 -89 390 -35 71 -59 102 -142 186 -113 112 -222 185
-351 235 -110 43 -341 100 -585 144 -588 106 -663 125 -722 185 -33 33 -38 44
-38 84 0 60 20 99 71 136 92 66 225 94 449 94 181 -1 302 -15 458 -55 120 -31
304 -102 388 -150 59 -33 96 -37 122 -11 28 28 332 686 332 719 0 41 -28 64
-150 122 -215 101 -498 175 -815 211 -98 11 -430 20 -510 14z" />
    <path d="M9015 10764 c-363 -30 -690 -138 -960 -319 -379 -253 -615 -609 -707
-1065 -19 -98 -22 -147 -23 -330 0 -225 7 -284 51 -463 75 -302 262 -604 499
-811 342 -296 792 -455 1298 -456 407 -1 741 93 1037 291 175 117 355 321 451
511 31 61 35 88 19 118 -11 20 -756 430 -782 430 -34 0 -50 -15 -103 -96 -102
-157 -227 -257 -390 -311 -72 -24 -94 -27 -230 -27 -174 0 -233 12 -365 77
-68 33 -103 59 -176 132 -79 78 -98 103 -137 185 -69 146 -82 213 -81 420 0
198 16 278 78 405 159 323 551 479 916 366 137 -43 291 -164 376 -296 56 -88
73 -105 107 -105 33 0 750 379 780 412 25 29 21 60 -17 136 -213 423 -621 697
-1156 777 -105 15 -390 27 -485 19z" />
    <path d="M12395 10759 c-311 -32 -617 -141 -871 -310 -209 -139 -437 -395
-548 -618 -81 -160 -144 -374 -167 -564 -17 -141 -6 -452 20 -582 151 -738
740 -1256 1541 -1355 124 -15 430 -12 563 5 619 81 1122 430 1372 950 124 257
172 501 162 824 -10 348 -95 622 -281 901 -99 149 -292 341 -446 443 -257 170
-543 271 -872 306 -111 13 -355 12 -473 0z m495 -944 c162 -56 310 -182 389
-333 142 -274 127 -693 -33 -934 -60 -91 -172 -190 -267 -237 -123 -60 -191
-75 -344 -75 -151 0 -243 21 -358 81 -89 47 -205 156 -261 246 -96 154 -141
376 -118 584 15 140 33 210 82 308 74 152 176 253 325 326 116 57 183 69 355
65 129 -2 154 -6 230 -31z" />
    <path d="M14911 10686 c-9 -11 -11 -278 -8 -1078 4 -1158 1 -1094 62 -1326 55
-206 137 -352 286 -507 140 -145 276 -235 475 -314 468 -186 1100 -199 1603
-35 427 140 716 409 841 782 37 113 66 258 79 402 7 71 11 486 11 1087 0 870
-2 973 -16 987 -14 14 -74 16 -508 16 -369 0 -495 -3 -504 -12 -9 -9 -12 -206
-12 -823 0 -839 -5 -979 -41 -1119 -60 -236 -226 -410 -444 -466 -312 -80
-621 84 -732 388 -57 156 -56 134 -62 1110 -5 787 -8 904 -21 912 -9 6 -214
10 -506 10 -410 0 -493 -2 -503 -14z" />
  </g>
</svg>